<svg width="177" height="72" viewBox="0 0 177 72" fill="none" xmlns="http://www.w3.org/2000/svg">
<g filter="url(#filter0_d_5_283)">
<rect x="6" y="2" width="165" height="60" rx="8.10963" fill="#FEFEFE"/>
</g>
<path d="M68.78 36V27.6H76.46V36H74.24V29.64H71V36H68.78ZM78.9744 34.944C78.0944 34.072 77.6544 33.024 77.6544 31.8C77.6544 30.576 78.0944 29.532 78.9744 28.668C79.8624 27.796 80.9824 27.36 82.3344 27.36C83.6864 27.36 84.8024 27.796 85.6824 28.668C86.5704 29.532 87.0144 30.576 87.0144 31.8C87.0144 33.024 86.5704 34.072 85.6824 34.944C84.8024 35.808 83.6864 36.24 82.3344 36.24C80.9824 36.24 79.8624 35.808 78.9744 34.944ZM80.6424 30.06C80.2104 30.5 79.9944 31.08 79.9944 31.8C79.9944 32.52 80.2104 33.1 80.6424 33.54C81.0744 33.98 81.6384 34.2 82.3344 34.2C83.0304 34.2 83.5944 33.98 84.0264 33.54C84.4584 33.1 84.6744 32.52 84.6744 31.8C84.6744 31.08 84.4584 30.5 84.0264 30.06C83.5944 29.62 83.0304 29.4 82.3344 29.4C81.6384 29.4 81.0744 29.62 80.6424 30.06ZM87.6697 33.3H89.9497C90.0057 33.492 90.1097 33.664 90.2617 33.816C90.5977 34.152 91.0937 34.32 91.7497 34.32C92.1577 34.32 92.4697 34.236 92.6857 34.068C92.9017 33.892 93.0097 33.676 93.0097 33.42C93.0097 32.86 92.5337 32.58 91.5817 32.58H90.4777V30.78H91.5817C92.3737 30.78 92.7697 30.54 92.7697 30.06C92.7697 29.836 92.6697 29.652 92.4697 29.508C92.2777 29.356 91.9977 29.28 91.6297 29.28C91.1257 29.28 90.7337 29.42 90.4537 29.7C90.3257 29.828 90.2377 29.968 90.1897 30.12H87.9097C88.0297 29.6 88.2497 29.14 88.5697 28.74C89.3137 27.82 90.3737 27.36 91.7497 27.36C92.8057 27.36 93.6297 27.592 94.2217 28.056C94.8137 28.52 95.1097 29.088 95.1097 29.76C95.1097 30.36 94.8897 30.848 94.4497 31.224C94.2497 31.376 94.0297 31.488 93.7897 31.56V31.68C94.0777 31.752 94.3377 31.868 94.5697 32.028C95.0897 32.404 95.3497 32.928 95.3497 33.6C95.3497 34.36 95.0297 34.992 94.3897 35.496C93.7497 35.992 92.8297 36.24 91.6297 36.24C90.1257 36.24 89.0137 35.752 88.2937 34.776C87.9737 34.352 87.7657 33.86 87.6697 33.3ZM96.5534 36V27.6H101.053C101.917 27.6 102.593 27.8 103.081 28.2C103.569 28.6 103.813 29.1 103.813 29.7C103.813 30.3 103.593 30.772 103.153 31.116C102.945 31.26 102.725 31.368 102.493 31.44V31.5C102.797 31.588 103.065 31.712 103.297 31.872C103.841 32.248 104.113 32.804 104.113 33.54C104.113 34.26 103.837 34.852 103.285 35.316C102.733 35.772 101.949 36 100.933 36H96.5534ZM98.7734 30.84H100.573C100.869 30.84 101.093 30.776 101.245 30.648C101.397 30.512 101.473 30.336 101.473 30.12C101.473 29.904 101.397 29.732 101.245 29.604C101.093 29.468 100.869 29.4 100.573 29.4H98.7734V30.84ZM98.7734 34.2H100.693C101.069 34.2 101.353 34.124 101.545 33.972C101.737 33.82 101.833 33.616 101.833 33.36C101.833 33.104 101.737 32.9 101.545 32.748C101.353 32.596 101.069 32.52 100.693 32.52H98.7734V34.2ZM106.279 34.944C105.399 34.072 104.959 33.024 104.959 31.8C104.959 30.576 105.399 29.532 106.279 28.668C107.167 27.796 108.287 27.36 109.639 27.36C110.991 27.36 112.107 27.796 112.987 28.668C113.875 29.532 114.319 30.576 114.319 31.8C114.319 33.024 113.875 34.072 112.987 34.944C112.107 35.808 110.991 36.24 109.639 36.24C108.287 36.24 107.167 35.808 106.279 34.944ZM107.947 30.06C107.515 30.5 107.299 31.08 107.299 31.8C107.299 32.52 107.515 33.1 107.947 33.54C108.379 33.98 108.943 34.2 109.639 34.2C110.335 34.2 110.899 33.98 111.331 33.54C111.763 33.1 111.979 32.52 111.979 31.8C111.979 31.08 111.763 30.5 111.331 30.06C110.899 29.62 110.335 29.4 109.639 29.4C108.943 29.4 108.379 29.62 107.947 30.06ZM115.514 36V27.6H117.734V30.72H120.974V27.6H123.194V36H120.974V32.76H117.734V36H115.514ZM124.749 36V27.6H126.969V31.74L126.789 32.82H126.909L129.969 27.6H132.549V36H130.329V31.86L130.509 30.78H130.389L127.329 36H124.749ZM133.452 29.64V27.6H140.952V29.64H138.312V36H136.092V29.64H133.452ZM141.846 36V27.6H144.066V30.12H145.866C146.946 30.12 147.794 30.396 148.41 30.948C149.034 31.492 149.346 32.196 149.346 33.06C149.346 33.924 149.034 34.632 148.41 35.184C147.794 35.728 146.946 36 145.866 36H141.846ZM144.066 33.96H145.986C146.322 33.96 146.586 33.88 146.778 33.72C146.97 33.552 147.066 33.332 147.066 33.06C147.066 32.788 146.97 32.572 146.778 32.412C146.586 32.244 146.322 32.16 145.986 32.16H144.066V33.96Z" fill="#212121"/>
<circle cx="15" cy="15" r="15" transform="matrix(-1 0 0 1 56 17)" fill="#060606"/>
<path fill-rule="evenodd" clip-rule="evenodd" d="M37.6486 25.2294C37.3297 24.8859 36.7991 24.9347 36.5349 25.332L35.6544 26.6558C35.2249 27.3014 34.9978 28.0733 35 28.8509C35.0018 29.4795 35.1535 30.1119 35.4693 30.6844C37.4705 34.312 39.3777 36.3252 42.7129 38.484C43.9033 39.2545 45.3798 39.1381 46.4722 38.2947L47.6919 37.353C48.0606 37.0683 48.1059 36.4966 47.787 36.1531L45.7119 33.9171C45.4748 33.6617 45.1058 33.6141 44.8171 33.8017C43.8571 34.6364 42.4081 34.559 41.5425 33.6269L40.0177 31.9847C39.1039 31.0007 39.0253 29.5038 39.831 28.4295C40.0051 28.1184 39.9609 27.7208 39.7239 27.4654L37.6486 25.2294Z" fill="#FEFEFE"/>
<defs>
<filter id="filter0_d_5_283" x="0.323258" y="0.378074" width="176.353" height="71.3535" filterUnits="userSpaceOnUse" color-interpolation-filters="sRGB">
<feFlood flood-opacity="0" result="BackgroundImageFix"/>
<feColorMatrix in="SourceAlpha" type="matrix" values="0 0 0 0 0 0 0 0 0 0 0 0 0 0 0 0 0 0 127 0" result="hardAlpha"/>
<feOffset dy="4.05482"/>
<feGaussianBlur stdDeviation="2.83837"/>
<feComposite in2="hardAlpha" operator="out"/>
<feColorMatrix type="matrix" values="0 0 0 0 0 0 0 0 0 0 0 0 0 0 0 0 0 0 0.03 0"/>
<feBlend mode="normal" in2="BackgroundImageFix" result="effect1_dropShadow_5_283"/>
<feBlend mode="normal" in="SourceGraphic" in2="effect1_dropShadow_5_283" result="shape"/>
</filter>
</defs>
</svg>
