<svg width="177" height="72" viewBox="0 0 177 72" fill="none" xmlns="http://www.w3.org/2000/svg">
<g filter="url(#filter0_d_5_291)">
<rect x="6" y="2" width="165" height="60" rx="8.10963" fill="#FEFEFE"/>
</g>
<path d="M69.728 27.98C68.856 27.132 68.42 26.072 68.42 24.8C68.42 23.528 68.856 22.472 69.728 21.632C70.608 20.784 71.732 20.36 73.1 20.36C74.612 20.36 75.8 20.912 76.664 22.016C77.048 22.52 77.32 23.068 77.48 23.66H75.2C75.08 23.412 74.932 23.204 74.756 23.036C74.332 22.612 73.78 22.4 73.1 22.4C72.404 22.4 71.84 22.62 71.408 23.06C70.976 23.5 70.76 24.08 70.76 24.8C70.76 25.52 70.976 26.1 71.408 26.54C71.84 26.98 72.404 27.2 73.1 27.2C73.852 27.2 74.436 26.96 74.852 26.48C75.044 26.264 75.18 26.024 75.26 25.76H77.54C77.364 26.408 77.08 26.988 76.688 27.5C75.832 28.66 74.636 29.24 73.1 29.24C71.732 29.24 70.608 28.82 69.728 27.98ZM79.6423 27.944C78.7623 27.072 78.3223 26.024 78.3223 24.8C78.3223 23.576 78.7623 22.532 79.6423 21.668C80.5303 20.796 81.6503 20.36 83.0023 20.36C84.3543 20.36 85.4703 20.796 86.3503 21.668C87.2383 22.532 87.6823 23.576 87.6823 24.8C87.6823 26.024 87.2383 27.072 86.3503 27.944C85.4703 28.808 84.3543 29.24 83.0023 29.24C81.6503 29.24 80.5303 28.808 79.6423 27.944ZM81.3103 23.06C80.8783 23.5 80.6623 24.08 80.6623 24.8C80.6623 25.52 80.8783 26.1 81.3103 26.54C81.7423 26.98 82.3063 27.2 83.0023 27.2C83.6983 27.2 84.2623 26.98 84.6943 26.54C85.1263 26.1 85.3423 25.52 85.3423 24.8C85.3423 24.08 85.1263 23.5 84.6943 23.06C84.2623 22.62 83.6983 22.4 83.0023 22.4C82.3063 22.4 81.7423 22.62 81.3103 23.06ZM87.7944 29L89.8944 24.86L87.9744 20.6H90.3144L91.6344 23.84H92.2344L93.5544 20.6H95.8944L93.9744 24.86L96.0744 29H93.6744L92.2344 25.88H91.6344L90.1944 29H87.7944ZM96.9167 29V20.6H100.997C102.029 20.6 102.865 20.896 103.505 21.488C104.153 22.072 104.477 22.796 104.477 23.66C104.477 24.524 104.153 25.252 103.505 25.844C102.865 26.428 102.029 26.72 100.997 26.72H99.1367V29H96.9167ZM99.1367 24.68H100.937C101.353 24.68 101.665 24.588 101.873 24.404C102.089 24.22 102.197 23.972 102.197 23.66C102.197 23.348 102.089 23.1 101.873 22.916C101.665 22.732 101.353 22.64 100.937 22.64H99.1367V24.68ZM104.598 29L106.878 20.6H110.958L113.238 29H110.958L110.538 27.32H107.298L106.878 29H104.598ZM107.778 25.4H110.058L109.338 22.64H108.498L107.778 25.4ZM114.014 29V20.6H116.234V23.72H119.474V20.6H121.694V29H119.474V25.76H116.234V29H114.014ZM123.249 29V20.6H125.469V24.74L125.289 25.82H125.409L128.469 20.6H131.049V29H128.829V24.86L129.009 23.78H128.889L125.829 29H123.249ZM131.952 22.64V20.6H139.452V22.64H136.812V29H134.592V22.64H131.952ZM140.346 29V20.6H142.566V23.12H144.366C145.446 23.12 146.294 23.396 146.91 23.948C147.534 24.492 147.846 25.196 147.846 26.06C147.846 26.924 147.534 27.632 146.91 28.184C146.294 28.728 145.446 29 144.366 29H140.346ZM142.566 26.96H144.486C144.822 26.96 145.086 26.88 145.278 26.72C145.47 26.552 145.566 26.332 145.566 26.06C145.566 25.788 145.47 25.572 145.278 25.412C145.086 25.244 144.822 25.16 144.486 25.16H142.566V26.96ZM68.78 43V34.6H73.28C74.144 34.6 74.82 34.8 75.308 35.2C75.796 35.6 76.04 36.1 76.04 36.7C76.04 37.3 75.82 37.772 75.38 38.116C75.172 38.26 74.952 38.368 74.72 38.44V38.5C75.024 38.588 75.292 38.712 75.524 38.872C76.068 39.248 76.34 39.804 76.34 40.54C76.34 41.26 76.064 41.852 75.512 42.316C74.96 42.772 74.176 43 73.16 43H68.78ZM71 37.84H72.8C73.096 37.84 73.32 37.776 73.472 37.648C73.624 37.512 73.7 37.336 73.7 37.12C73.7 36.904 73.624 36.732 73.472 36.604C73.32 36.468 73.096 36.4 72.8 36.4H71V37.84ZM71 41.2H72.92C73.296 41.2 73.58 41.124 73.772 40.972C73.964 40.82 74.06 40.616 74.06 40.36C74.06 40.104 73.964 39.9 73.772 39.748C73.58 39.596 73.296 39.52 72.92 39.52H71V41.2ZM77.5456 43V34.6H79.7656V38.74L79.5856 39.82H79.7056L82.7656 34.6H85.3456V43H83.1256V38.86L83.3056 37.78H83.1856L80.1256 43H77.5456ZM86.3689 40.3H88.6489C88.7049 40.492 88.8089 40.664 88.9609 40.816C89.2969 41.152 89.7929 41.32 90.4489 41.32C90.8569 41.32 91.1689 41.236 91.3849 41.068C91.6009 40.892 91.7089 40.676 91.7089 40.42C91.7089 39.86 91.2329 39.58 90.2809 39.58H89.1769V37.78H90.2809C91.0729 37.78 91.4689 37.54 91.4689 37.06C91.4689 36.836 91.3689 36.652 91.1689 36.508C90.9769 36.356 90.6969 36.28 90.3289 36.28C89.8249 36.28 89.4329 36.42 89.1529 36.7C89.0249 36.828 88.9369 36.968 88.8889 37.12H86.6089C86.7289 36.6 86.9489 36.14 87.2689 35.74C88.0129 34.82 89.0729 34.36 90.4489 34.36C91.5049 34.36 92.3289 34.592 92.9209 35.056C93.5129 35.52 93.8089 36.088 93.8089 36.76C93.8089 37.36 93.5889 37.848 93.1489 38.224C92.9489 38.376 92.7289 38.488 92.4889 38.56V38.68C92.7769 38.752 93.0369 38.868 93.2689 39.028C93.7889 39.404 94.0489 39.928 94.0489 40.6C94.0489 41.36 93.7289 41.992 93.0889 42.496C92.4489 42.992 91.5289 43.24 90.3289 43.24C88.8249 43.24 87.7129 42.752 86.9929 41.776C86.6729 41.352 86.4649 40.86 86.3689 40.3ZM95.2527 43V34.6H97.4727V38.74L97.2927 39.82H97.4127L100.473 34.6H103.053V43H100.833V38.86L101.013 37.78H100.893L97.8327 43H95.2527ZM103.956 36.64V34.6H111.456V36.64H108.816V43H106.596V36.64H103.956ZM112.35 43V34.6H114.57V37.72H115.53L117.57 34.6H120.09L117.45 38.56L120.27 43H117.75L115.65 39.76H114.57V43H112.35ZM120.206 34.6H122.546L123.926 38.2H124.826L126.206 34.6H128.486L125.246 43H122.966L124.046 40.24H122.426L120.206 34.6Z" fill="#313131"/>
<circle cx="41" cy="32" r="15" fill="#060606"/>
<path d="M45.9058 29.9147C45.6136 29.9147 45.2267 29.9077 44.7449 29.9077C43.5699 29.9077 42.6038 28.8556 42.6038 27.5725V25.3213C42.6038 25.1442 42.4725 25 42.3104 25H38.8887C37.2916 25 36 26.4182 36 28.1563V35.6988C36 37.5223 37.3531 39 39.022 39H44.1177C45.7097 39 47 37.5909 47 35.8514V30.2297C47 30.0519 46.8693 29.9084 46.7066 29.9091C46.433 29.9112 46.105 29.9147 45.9058 29.9147Z" fill="#FEFEFE"/>
<path d="M43.6592 25.1147C43.4191 24.8728 43 25.0392 43 25.3744V27.4253C43 28.2855 43.7307 28.9932 44.6187 28.9932C45.1792 28.9994 45.9564 29.001 46.6165 28.9994C46.9545 28.9987 47.1263 28.6075 46.8919 28.371C46.0448 27.5179 44.528 25.9888 43.6592 25.1147Z" fill="#FEFEFE"/>
<path d="M43.8481 32.9357C43.6457 32.7222 43.32 32.7207 43.1176 32.9372L42.0164 34.1172V30.5505C42.0164 30.2468 41.7849 30 41.5 30C41.2152 30 40.9837 30.2468 40.9837 30.5505V34.1172L39.8818 32.9372C39.6801 32.7207 39.3537 32.7222 39.152 32.9357C38.9497 33.15 38.9497 33.498 39.15 33.7138L41.1341 35.8389H41.1348C41.1819 35.8892 41.2381 35.9298 41.3011 35.9579C41.3635 35.9852 41.4314 36 41.5 36C41.5693 36 41.6373 35.9852 41.6996 35.9571C41.7613 35.9298 41.8175 35.8892 41.8646 35.8397L41.866 35.8389L43.8494 33.7138C44.0504 33.498 44.0504 33.15 43.8481 32.9357Z" fill="#060606"/>
<defs>
<filter id="filter0_d_5_291" x="0.323258" y="0.378074" width="176.353" height="71.3535" filterUnits="userSpaceOnUse" color-interpolation-filters="sRGB">
<feFlood flood-opacity="0" result="BackgroundImageFix"/>
<feColorMatrix in="SourceAlpha" type="matrix" values="0 0 0 0 0 0 0 0 0 0 0 0 0 0 0 0 0 0 127 0" result="hardAlpha"/>
<feOffset dy="4.05482"/>
<feGaussianBlur stdDeviation="2.83837"/>
<feComposite in2="hardAlpha" operator="out"/>
<feColorMatrix type="matrix" values="0 0 0 0 0 0 0 0 0 0 0 0 0 0 0 0 0 0 0.03 0"/>
<feBlend mode="normal" in2="BackgroundImageFix" result="effect1_dropShadow_5_291"/>
<feBlend mode="normal" in="SourceGraphic" in2="effect1_dropShadow_5_291" result="shape"/>
</filter>
</defs>
</svg>
